Coordinates
version=1
nRows=15
nColumns=19
inDegrees=yes

Units are S.I. units (second, meters, Newtons, ...)
If the header above contains a line with 'inDegrees', this indicates whether rotational values are in degrees (yes) or radians (no).

endheader
time	pelvis_tilt	pelvis_list	pelvis_rotation	pelvis_tx	pelvis_ty	pelvis_tz	hip_flexion_r	hip_adduction_r	hip_rotation_r	knee_angle_r	knee_angle_r_beta	ankle_angle_r	hip_flexion_l	hip_adduction_l	hip_rotation_l	knee_angle_l	knee_angle_l_beta	ankle_angle_l
     13.62000000	     -0.65314823	      4.97513060	      2.18884693	      2.23885308	      0.97631405	      1.01297244	    -14.60346776	     -9.59370918	    -15.68212223	     53.97304013	      0.94200726	    -11.92466626	     21.53874580	      8.46749606	     -4.64516422	     11.45942595	      0.20000471	      6.58839363
     13.62666667	     -0.62668775	      5.49610776	      2.61659295	      2.23760141	      0.97247140	      1.01214768	    -13.19871564	    -10.16785653	    -14.96254228	     57.88860648	      1.01034678	    -10.93410676	     22.08717011	      9.04965843	     -5.59641596	     13.96317317	      0.24370335	      6.30393261
     13.63333333	      0.17587516	      6.25096327	      3.17271376	      2.23642454	      0.96911440	      1.01142437	    -12.77329574	    -10.94941232	    -14.72065846	     61.53871764	      1.07405324	    -10.12941871	     21.72269658	      9.81682114	     -6.38306702	     16.70304364	      0.29152311	      6.11591147
     13.64000000	      0.41039362	      6.68050572	      3.76778843	      2.23500919	      0.96476599	      1.01076879	    -11.50950910	    -11.35584236	    -14.25154865	     65.25879431	      1.13898083	     -9.44489080	     22.18323043	     10.15568306	     -7.07197943	     20.09643415	      0.35074894	      6.18213140
     13.64666667	      0.46225847	      6.94426084	      4.46440941	      2.23348112	      0.95988727	      1.01010968	     -9.95258268	    -11.59381912	    -13.85676736	     68.90572830	      1.20263183	     -8.83804377	     22.87450589	     10.32140841	     -7.37523396	     23.78173049	      0.41506950	      6.58380081
     13.65333333	      0.81889171	      7.23760325	      5.18861886	      2.23201381	      0.95517703	      1.00949733	     -8.74579521	    -11.87764046	    -13.63814614	     72.30970319	      1.26204240	     -8.27622481	     23.07327624	     10.53408513	     -7.32870146	     27.36217074	      0.47755997	      7.30090015
     13.66000000	      1.06002641	      7.50494332	      5.92078940	      2.23048774	      0.95027427	      1.00887352	     -7.33259363	    -12.20296561	    -13.44577364	     75.58679911	      1.31923852	     -7.68314040	     23.26153277	     10.77703910	     -6.97639909	     30.80831376	      0.53770651	      8.36253406
     13.66666667	      1.26509006	      7.71325894	      6.66426637	      2.22891441	      0.94538300	      1.00818932	     -5.81508567	    -12.52918720	    -13.28707081	     78.66763614	      1.37300927	     -7.05147093	     23.33116095	     11.04235558	     -6.33238874	     34.06045884	      0.59446715	      9.79350703
     13.67333333	      1.20120717	      7.81356415	      7.38390600	      2.22728263	      0.94044567	      1.00737043	     -3.88089822	    -12.86068439	    -13.06562268	     81.57172080	      1.42369510	     -6.52314781	     23.51181605	     11.30472878	     -5.47713191	     37.03546013	      0.64639072	     11.54796376
     13.68000000	      1.39069667	      8.07083558	      7.96080373	      2.22570104	      0.93616083	      1.00671753	     -2.21294334	    -13.42055984	    -12.82630897	     84.19285242	      1.46944248	     -5.54408178	     23.11757076	     11.71128374	     -4.65310875	     39.52254147	      0.68979848	     13.42431832
     13.68666667	      1.96540705	      8.43382521	      8.33702154	      2.22424350	      0.93288572	      1.00620152	     -0.93203509	    -14.13602993	    -12.50440764	     86.44075345	      1.50867576	     -4.74008033	     21.95925904	     12.14993039	     -3.92154907	     41.46465085	      0.72369468	     15.55617874
     13.69333333	      1.17017133	      8.38599817	      8.79248756	      2.22255253	      0.92852126	      1.00546020	      2.17295386	    -14.59417313	    -11.88231204	     88.70378783	      1.54817316	     -3.76966929	     22.25820266	     12.39896342	     -3.08143711	     43.27282446	      0.75525326	     17.56368789
     13.70000000	      0.99018108	      8.45957024	      8.96454882	      2.22103227	      0.92557167	      1.00500906	      4.61538592	    -15.12919204	    -11.15802740	     90.49307663	      1.57940214	     -2.82300539	     21.52444171	     12.59026315	     -2.48955572	     44.47636286	      0.77625897	     19.59693094
     13.70666667	      0.80845263	      8.58790775	      8.96692621	      2.21969876	      0.92338632	      1.00476288	      7.12405095	    -15.70579092	    -10.27231570	     91.92924017	      1.60446792	     -1.86367734	     20.47590656	     12.78133439	     -2.02487894	     45.12727295	      0.78761950	     21.45849008
     13.71333333	      0.66855071	      8.64818896	      8.79928728	      2.21846146	      0.92193983	      1.00468642	      9.65573750	    -16.16867523	     -9.29445898	     92.99306982	      1.62303525	     -0.92756169	     19.15066356	     12.82381770	     -1.72390812	     45.34623910	      0.79144118	     23.14373177
